<svg xmlns="http://www.w3.org/2000/svg" viewBox="0 0 900 520" role="img" aria-labelledby="title desc"><title id="title">AVILOO EV battery state of health diagnostics</title><desc id="desc">A clean illustration showing an electric vehicle battery and state of health diagnostic report.</desc><defs><linearGradient id="bg" x1="0" y1="0" x2="1" y2="1"><stop stop-color="#2b174b"/><stop offset="1" stop-color="#573091"/></linearGradient><linearGradient id="cell" x1="0" y1="0" x2="1" y2="0"><stop stop-color="#5dd39e"/><stop offset="1" stop-color="#91e6bb"/></linearGradient></defs><rect width="900" height="520" rx="36" fill="url(#bg)"/><circle cx="770" cy="90" r="142" fill="#fff" opacity=".06"/><circle cx="760" cy="430" r="220" fill="#fff" opacity=".04"/><text x="70" y="98" fill="#fff" font-family="Arial, Helvetica, sans-serif" font-size="60" font-weight="900" letter-spacing="3">AVILOO</text><text x="73" y="138" fill="#d8c7f4" font-family="Arial, Helvetica, sans-serif" font-size="20" font-weight="700" letter-spacing="4">EV BATTERY DIAGNOSTICS</text><rect x="76" y="222" width="360" height="164" rx="28" fill="none" stroke="#fff" stroke-width="9"/><rect x="436" y="271" width="35" height="66" rx="10" fill="#fff"/><g fill="url(#cell)"><rect x="107" y="255" width="54" height="99" rx="10"/><rect x="176" y="255" width="54" height="99" rx="10"/><rect x="245" y="255" width="54" height="99" rx="10"/><rect x="314" y="255" width="54" height="99" rx="10"/></g><path d="M594 362a122 122 0 1 1 172-172" fill="none" stroke="#fff" stroke-opacity=".22" stroke-width="24" stroke-linecap="round"/><path d="M594 362a122 122 0 0 1 172-172" fill="none" stroke="#5dd39e" stroke-width="24" stroke-linecap="round"/><text x="647" y="294" fill="#fff" font-family="Arial, Helvetica, sans-serif" font-size="68" font-weight="900">SOH</text><text x="650" y="335" fill="#d8c7f4" font-family="Arial, Helvetica, sans-serif" font-size="21" font-weight="700" letter-spacing="2">STATE OF HEALTH</text><text x="76" y="455" fill="#fff" font-family="Arial, Helvetica, sans-serif" font-size="25" font-weight="700">Independent insight into your EV battery condition</text></svg>